HIERARCHY
ROOT Hips
{
	OFFSET 55.117599 7.221611 58.177898
	CHANNELS 6 Xposition Yposition Zposition Xrotation Yrotation Zrotation
	JOINT spine
	{
		OFFSET 0.000000 -0.393701 6.846371
		CHANNELS 3 Xrotation Yrotation Zrotation
		JOINT spine1
		{
			OFFSET 0.000000 -0.000001 9.496208
			CHANNELS 3 Xrotation Yrotation Zrotation
			JOINT spine2
			{
				OFFSET 0.000000 -0.000002 9.099091
				CHANNELS 3 Xrotation Yrotation Zrotation
				JOINT Neck
				{
					OFFSET 0.000000 -1.113784 23.361198
					CHANNELS 3 Xrotation Yrotation Zrotation
					JOINT Head
					{
						OFFSET 0.000000 -0.000001 7.058022
						CHANNELS 3 Xrotation Yrotation Zrotation
						End Site
						{
							OFFSET 0.000000 5.634178 17.084396
						}
					}
				}
				JOINT RightShoulder
				{
					OFFSET -3.831360 0.533490 9.826309
					CHANNELS 3 Xrotation Yrotation Zrotation
					JOINT RightArm
					{
						OFFSET 0.000000 -0.000002 12.888100
						CHANNELS 3 Xrotation Yrotation Zrotation
						JOINT RightArmRoll
						{
							OFFSET 0.000000 -0.000001 6.506172
							CHANNELS 3 Xrotation Yrotation Zrotation
							JOINT RightForeArm
							{
								OFFSET 0.000000 -0.000003 18.950104
								CHANNELS 3 Xrotation Yrotation Zrotation
								JOINT RightForeArmRoll
								{
									OFFSET 0.000000 -0.000001 7.300934
									CHANNELS 3 Xrotation Yrotation Zrotation
									JOINT RightHand
									{
										OFFSET 0.000000 -0.000002 14.651398
										CHANNELS 3 Xrotation Yrotation Zrotation
										End Site
										{
											OFFSET 0.000000 0.000000 0.100006
										}
									}
								}
							}
						}
					}
				}
				JOINT LeftShoulder
				{
					OFFSET 3.831360 0.533490 9.826309
					CHANNELS 3 Xrotation Yrotation Zrotation
					JOINT LeftArm
					{
						OFFSET 0.000000 -0.000002 12.888100
						CHANNELS 3 Xrotation Yrotation Zrotation
						JOINT LeftArmRoll
						{
							OFFSET 0.000000 -0.000001 6.506172
							CHANNELS 3 Xrotation Yrotation Zrotation
							JOINT LeftForeArm
							{
								OFFSET 0.000000 -0.000003 18.950104
								CHANNELS 3 Xrotation Yrotation Zrotation
								JOINT LeftForeArmRoll
								{
									OFFSET 0.000000 -0.000001 7.300919
									CHANNELS 3 Xrotation Yrotation Zrotation
									JOINT LeftHand
									{
										OFFSET 0.000000 -0.000002 14.651398
										CHANNELS 3 Xrotation Yrotation Zrotation
										End Site
										{
											OFFSET 0.000000 0.000000 0.100006
										}
									}
								}
							}
						}
					}
				}
			}
		}
	}
	JOINT RightUpLeg
	{
		OFFSET -6.068371 0.933477 -1.112782
		CHANNELS 3 Xrotation Yrotation Zrotation
		JOINT RightUpLegRoll
		{
			OFFSET 0.000000 -0.000003 17.179604
			CHANNELS 3 Xrotation Yrotation Zrotation
			JOINT RightLeg
			{
				OFFSET 0.000000 0.000004 -21.274300
				CHANNELS 3 Xrotation Yrotation Zrotation
				JOINT RightLegRoll
				{
					OFFSET 0.000000 -0.000004 21.343903
					CHANNELS 3 Xrotation Yrotation Zrotation
					JOINT RightFoot
					{
						OFFSET 0.000000 -0.000003 17.765198
						CHANNELS 3 Xrotation Yrotation Zrotation
						JOINT RightToeBase
						{
							OFFSET 0.000000 -0.000002 14.850800
							CHANNELS 3 Xrotation Yrotation Zrotation
							End Site
							{
								OFFSET 0.006294 0.829003 7.192139
							}
						}
					}
				}
			}
		}
	}
	JOINT LeftUpLeg
	{
		OFFSET 6.068371 0.933477 -1.112782
		CHANNELS 3 Xrotation Yrotation Zrotation
		JOINT LeftUpLegRoll
		{
			OFFSET 0.000000 -0.000003 17.179703
			CHANNELS 3 Xrotation Yrotation Zrotation
			JOINT LeftLeg
			{
				OFFSET 0.000000 -0.000003 21.274200
				CHANNELS 3 Xrotation Yrotation Zrotation
				JOINT LeftLegRoll
				{
					OFFSET 0.000000 -0.000004 21.541199
					CHANNELS 3 Xrotation Yrotation Zrotation
					JOINT LeftFoot
					{
						OFFSET 0.000000 -0.000003 17.567894
						CHANNELS 3 Xrotation Yrotation Zrotation
						JOINT LeftToeBase
						{
							OFFSET 0.000000 -0.000003 14.850800
							CHANNELS 3 Xrotation Yrotation Zrotation
							End Site
							{
								OFFSET -0.028210 0.829004 7.192139
							}
						}
					}
				}
			}
		}
	}
}
MOTION
Frames: 4
Frame Time: 0.041667
57.254791 -39.374603 91.622894 -5.821490 -0.044460 -1.458863 -1.677629 0.015807 -0.049246 0.654350 0.031556 -0.098185 2.299420 0.030378 -0.098556 29.777938 -1.705908 -1.652098 -7.419933 -1.510748 -1.720222 11.267013 -70.323846 11.084537 -71.051535 -111.243557 -80.809546 0.000003 -0.000001 -0.000005 40.390822 -15.523902 4.862215 -0.000010 0.000006 -3.000001 -4.999606 -7.998771 -0.000040 10.901675 66.040956 -11.430858 -63.034593 119.837513 64.870452 -0.000007 0.000001 0.000008 31.566501 20.657246 -5.071438 0.000012 -0.000008 2.999990 -5.000209 7.999302 -0.000116 3.171000 -175.561775 1.846024 179.999991 -0.000004 -1.172001 174.641886 -2.129668 -0.248691 -0.000001 -0.000004 0.052422 68.898632 6.911704 2.087944 25.456957 -7.355624 0.000006 5.523013 175.256015 -0.371584 -0.000005 -0.000005 -1.241850 -6.382770 0.863908 0.241860 -0.000004 0.000004 -0.085094 69.314829 -6.912858 -2.032171 25.456957 7.355613 0.000000 
57.248398 -39.374702 91.618103 -5.805961 -0.043651 -1.454489 -1.680870 0.016194 -0.049369 0.647291 0.031240 -0.098428 2.292360 0.030059 -0.098795 29.920999 -1.733655 -1.663982 -7.487810 -1.576607 -1.734216 11.319519 -70.354739 11.136623 -71.066097 -111.100540 -80.631667 0.000002 -0.000001 -0.000004 40.078177 -15.582035 4.844152 -0.000008 0.000005 -2.999999 -4.999603 -7.998770 -0.000038 10.997119 66.045347 -11.536696 -62.998468 119.670433 64.650090 -0.000005 0.000001 0.000009 31.287761 20.673659 -5.029967 0.000011 -0.000007 2.999990 -5.000207 7.999302 -0.000111 3.148215 -175.532720 1.895918 179.999991 -0.000004 -1.172001 174.630288 -2.191347 -0.251927 -0.000001 -0.000004 0.053029 68.899062 6.911695 2.088914 25.456957 -7.355624 0.000007 5.487357 175.254745 -0.363132 -0.000005 -0.000004 -1.241850 -6.414227 0.855300 0.242896 -0.000004 0.000004 -0.086441 69.328578 -6.913523 -2.031234 25.456957 7.355614 -0.000000 
57.242996 -39.370804 91.619202 -5.789892 -0.042898 -1.449780 -1.684290 0.016596 -0.049520 0.639818 0.030891 -0.098724 2.284890 0.029706 -0.099087 30.066257 -1.760746 -1.674364 -7.560645 -1.642137 -1.747059 11.373134 -70.385058 11.190021 -71.075010 -110.956505 -80.447689 0.000001 -0.000002 -0.000005 39.764555 -15.641352 4.825725 -0.000009 0.000005 -3.000001 -4.999608 -7.998771 -0.000040 11.095556 66.050764 -11.645694 -62.962145 119.501372 64.428314 -0.000005 0.000002 0.000008 31.008188 20.690475 -4.988391 0.000013 -0.000008 2.999990 -5.000206 7.999304 -0.000113 3.124515 -175.501670 1.947907 179.999991 -0.000004 -1.172001 174.617816 -2.255020 -0.255397 -0.000001 -0.000004 0.053683 68.899895 6.911673 2.089858 25.456957 -7.355623 0.000004 5.450429 175.253461 -0.354162 -0.000005 -0.000005 -1.241850 -6.446957 0.846219 0.243963 -0.000004 0.000004 -0.087857 69.342785 -6.914273 -2.030185 25.456957 7.355615 -0.000001 
57.234596 -39.370502 91.620102 -5.773441 -0.042182 -1.444835 -1.687841 0.017009 -0.049691 0.632060 0.030519 -0.099057 2.277130 0.029330 -0.099415 30.213137 -1.787399 -1.683673 -7.636972 -1.707439 -1.759147 11.427540 -70.414906 11.244357 -71.079019 -110.811746 -80.258602 0.000001 -0.000002 -0.000006 39.450230 -15.701638 4.806923 -0.000008 0.000004 -3.000001 -4.999606 -7.998771 -0.000038 11.196174 66.056986 -11.756971 -62.922879 119.331601 64.202521 -0.000005 0.000003 0.000008 30.727969 20.707575 -4.946684 0.000010 -0.000008 2.999992 -5.000208 7.999305 -0.000113 3.100148 -175.469609 2.001341 179.999991 -0.000004 -1.172000 174.604716 -2.319693 -0.259028 -0.000001 -0.000004 0.054372 68.900851 6.911692 2.090803 25.456960 -7.355623 0.000005 5.412612 175.253174 -0.344735 -0.000005 -0.000005 -1.241850 -6.480553 0.836806 0.245047 -0.000004 0.000004 -0.089321 69.357497 -6.914971 -2.029295 25.456953 7.355614 -0.000001 
